# xmcd
#
# Track frame offsets:
#	150
#	15819
#	30799
#	43686
#	63772
#	79945
#	97564
#	114593
#	128299
#	142169
#
# Disc length: 2116 seconds
#
# Revision: 0
# Processed by: cddbd v1.5.2PL0 Copyright (c) Steve Scherf et al.
# Submitted via: VUPlayer 2.41
#
DISCID=6508420a
DTITLE=M T Allan - Stars and Strpes
DYEAR=2004
DGENRE=Country
TTITLE0=THAT WAS US
TTITLE1=THREE WOODEN CROSSES
TTITLE2=BLUE CLEAR SKY
TTITLE3=ALL THE SAME TO ME
TTITLE4=STARS and STRIPES
TTITLE5=BROKENHEARTSVILLE
TTITLE6=LOVIN' ALL NIGHT
TTITLE7=SHE'LL LEAVE YOU WITH A SMILE
TTITLE8=RIGHT WHERE I NEED TO BE
TTITLE9=THAT'LL BE ALRIGHT
EXTD=
EXTT0=
EXTT1=
EXTT2=
EXTT3=
EXTT4=
EXTT5=
EXTT6=
EXTT7=
EXTT8=
EXTT9=
PLAYORDER=
